<svg xmlns="http://www.w3.org/2000/svg" xmlns:xlink="http://www.w3.org/1999/xlink" width="66px" height="74px" viewBox="0 0 66 74"><title>rooster</title><g id="Home-1" stroke="none" stroke-width="1" fill="none" fill-rule="evenodd"><g id="Single-Product---Boxes" transform="translate(-927.000000, -1224.000000)" fill="#194641"><g id="hero-copy-5" transform="translate(544.653266, 1224.000000)"><g id="rooster" transform="translate(382.346734, 0.000000)"><path d="M41.2191117,37.4335938 C40.0810737,35.5195312 38.3740166,33.4140625 36.761796,31.8828125 C35.4340849,30.6386719 34.1063738,29.2988281 32.5889897,28.2460938 C31.7354612,27.671875 30.8819326,27.0019531 30.3129136,26.140625 C30.2180771,25.9492188 30.0284041,25.6621094 29.7438946,25.8535156 C29.5542216,25.9492188 29.5542216,26.2363281 29.6490581,26.4277344 C29.6490581,26.6191406 29.6490581,26.8105469 29.7438946,26.90625 C29.9335676,27.671875 29.9335676,28.4375 29.7438946,29.203125 C29.6490581,29.7773438 29.459385,30.4472656 29.459385,31.0214844 C29.459385,31.5 29.5542216,31.8828125 29.8387311,32.265625 C30.2180771,32.8398438 30.6922596,33.4140625 31.0716056,33.9882812 C32.3044802,35.6152344 33.4425183,37.3378906 34.0115373,39.3476562 C34.2012103,40.0175781 34.3908833,40.6875 34.5805563,41.3574219 C34.5805563,41.453125 34.6753929,41.5488281 34.5805563,41.6445312 C34.3908833,41.6445312 34.3908833,41.453125 34.2960468,41.2617188 C34.0115373,40.4960938 33.7270278,39.6347656 33.4425183,38.8691406 C32.7786627,37.3378906 32.0199707,35.8066406 30.8819326,34.5625 C30.4077501,33.9882812 29.8387311,33.4140625 29.5542216,32.6484375 C29.269712,32.0742188 28.890366,31.7871094 28.321347,31.7871094 C27.942001,31.7871094 27.4678184,31.7871094 27.0884724,31.7871094 C26.1401074,31.8828125 25.1917423,31.9785156 24.2433772,31.7871094 C22.6311566,31.5957031 21.3034456,30.8300781 20.449917,29.3945312 C19.9757345,28.5332031 19.5963885,27.671875 19.4067155,26.8105469 C19.2170424,25.9492188 19.0273694,25.1835938 18.8376964,24.3222656 C18.1738409,20.5898438 17.1306393,16.953125 15.7080917,13.4121094 C14.9493997,11.6894531 14.0010346,10.0625 12.7681601,8.62695312 C12.5784871,8.33984375 12.2939775,8.05273438 11.9146315,7.95703125 C11.061103,7.66992187 10.2075744,7.3828125 9.35404587,7.09570312 C9.16437286,7 8.87986334,7 8.59535383,7 C8.50051732,7 8.40568082,7.19140625 8.50051732,7.19140625 C8.69019033,7.3828125 8.78502684,7.57421875 8.97469985,7.765625 C9.35404587,8.24414062 9.73339189,8.62695312 10.0179014,9.20117187 C10.7765935,11.1152344 9.25920937,12.4550781 8.50051732,13.3164062 C8.02633479,13.7949219 7.93149829,14.3691406 7.83666178,15.0390625 C7.55215227,17.4316406 6.50895071,19.5371094 4.99156662,21.2597656 C4.51738409,21.8339844 4.13803807,22.4082031 4.23287457,23.1738281 C4.32771108,24.1308594 4.13803807,25.0878906 3.85352855,26.0449219 C3.66385554,27.0019531 3.37934602,27.9589844 3.09483651,28.9160156 C3.09483651,29.1074219 3,29.203125 3,29.3945312 C3,29.4902344 3.09483651,29.5859375 3.18967301,29.5859375 C3.28450952,29.5859375 3.75869204,29.2988281 3.85352855,29.203125 C4.04320156,29.1074219 4.13803807,29.0117188 4.32771108,29.203125 C4.51738409,29.3945312 4.42254758,29.4902344 4.42254758,29.6816406 C4.23287457,30.6386719 3.94836506,31.6914062 3.75869204,32.6484375 C3.56901903,33.4140625 3.47418253,34.1796875 3.47418253,34.9453125 C3.47418253,35.1367188 3.47418253,35.328125 3.47418253,35.6152344 C3.47418253,35.9023438 3.66385554,35.9980469 3.94836506,35.9023438 C5.08640312,35.4238281 6.12960468,34.7539062 6.98313323,33.796875 C7.45731576,33.2226562 8.02633479,32.5527344 8.50051732,31.9785156 C8.59535383,31.8828125 8.69019033,31.7871094 8.87986334,31.8828125 C8.97469985,31.9785156 9.06953636,32.0742188 8.97469985,32.265625 C8.78502684,32.5527344 8.31084431,33.5097656 8.1211713,34.1796875 C7.93149829,34.8496094 7.64698877,37.0507812 8.1211713,38.5820312 C8.50051732,39.7304688 8.87986334,40.8789062 9.44888238,41.9316406 C10.0179014,42.8886719 10.4920839,43.9414062 10.7765935,44.9941406 C10.87143,45.1855469 10.9662665,45.4726562 11.061103,45.6640625 C11.1559395,45.7597656 11.250776,45.7597656 11.3456125,45.7597656 C11.5352855,45.6640625 11.7249585,45.5683594 11.819795,45.3769531 C12.7681601,44.515625 13.7165251,43.5585938 14.3803807,42.4101563 C14.7597267,41.7402344 15.1390727,40.9746094 15.4235822,40.3046875 C15.6132552,39.7304688 15.8029282,39.5390625 16.5616203,39.8261719 C17.0358028,40.0175781 17.5099853,40.2089844 17.8893314,40.4003906 C18.7428599,40.9746094 19.5963885,41.5488281 20.3550805,42.3144531 C20.63959,42.6972656 20.9240995,42.984375 21.3034456,43.2714844 C21.5879551,43.5585938 21.7776281,43.5585938 21.8724646,43.1757812 C22.1569741,42.4101563 22.3466471,41.7402344 22.3466471,40.9746094 C22.4414836,40.0175781 22.4414836,39.0605469 22.5363201,38.1992188 C22.5363201,38.1035156 22.6311566,38.0078125 22.6311566,37.9121094 C22.7259932,37.8164063 22.9156662,37.9121094 23.0105027,38.0078125 C23.1053392,38.1035156 23.2001757,38.1992188 23.2950122,38.2949219 C23.8640312,38.8691406 24.5278868,39.4433594 25.0020693,40.1132813 C26.4246169,41.7402344 27.7523279,43.4628906 28.6058565,45.4726563 C29.080039,46.6210938 29.459385,47.8652344 29.9335676,49.109375 C30.7870961,51.2148438 31.3561152,53.4160156 31.9251342,55.6171875 C31.9251342,55.7128906 31.9251342,55.9042969 32.2096437,56 C32.4941532,55.7128906 32.7786627,55.4257812 33.0631723,55.0429688 C33.3476818,54.7558594 33.6321913,54.46875 33.9167008,54.2773438 C35.2444119,53.6074219 36.0979404,52.5546875 36.6669595,51.1191406 C36.8566325,50.4492188 37.2359785,49.7792969 37.4256515,49.109375 C37.4256515,49.0136719 37.520488,48.8222656 37.710161,48.9179688 C37.8049975,48.9179688 37.899834,49.0136719 37.899834,49.109375 C38.1843436,49.7792969 38.5636896,50.4492188 38.9430356,51.0234375 C39.0378721,51.2148438 39.2275451,51.3105469 39.3223816,51.5019531 C39.4172181,51.5976563 39.5120546,51.5019531 39.6068911,51.40625 C39.7017276,51.2148438 39.7017276,50.9277344 39.7017276,50.640625 C39.7017276,49.2050781 39.9862372,47.7695312 40.4604197,46.4296875 C40.6500927,45.9511719 40.7449292,45.4726562 40.9346022,45.0898438 C41.3139482,43.9414062 41.5984578,42.7929688 41.7881308,41.6445312 C42.2623133,40.0175781 41.8829673,38.6777344 41.2191117,37.4335938" id="Path"></path><path d="M32.9649731,55.7759243 C32.9649731,55.5859189 32.871568,55.3959136 32.871568,55.3009109 C32.1243272,52.0708198 31.0968712,48.9357314 29.8826049,45.8956457 C28.948554,43.5205787 27.5474775,41.5255224 25.9595909,39.5304662 C25.5859705,39.0554528 25.118945,38.5804394 24.6519195,38.2004287 C24.5585144,38.105426 24.4651093,37.9154206 24.1848941,38.0104233 C24.091489,38.4854367 24.1848941,39.0554528 24.1848941,39.5304662 C24.1848941,40.5754956 23.9980839,41.5255224 23.7178686,42.4755492 C23.2508431,43.8055867 23.0640329,43.5205787 22.3167921,42.7605573 C21.5695514,41.9055331 20.6355004,41.1455117 19.7014494,40.3854903 C19.1410189,40.0054796 18.5805883,39.6254688 17.9267526,39.4354635 C17.5531322,39.3404608 17.4597271,39.3404608 17.2729169,39.7204715 C16.9927017,40.3854903 16.7124864,40.9555064 16.4322711,41.6205251 C15.6850303,43.140568 14.6575743,44.3756028 13.3499029,45.3256296 C13.1630927,45.4206323 12.9762825,45.5156349 12.7894723,45.6106376 C12.6026621,45.7056403 12.509257,45.6106376 12.415852,45.5156349 C12.3224469,45.4206323 12.3224469,45.3256296 12.3224469,45.2306269 C12.0422316,43.9955921 11.3883959,42.9505626 10.8279653,41.8105305 C10.4543449,41.1455117 10.1741296,40.480493 9.89391436,39.8154742 C9.24007869,38.2004287 8.9598634,36.5853831 9.14667359,34.7803322 C9.24007869,34.1153135 9.61369907,32.7852759 9.61369907,32.6902733 C9.52029397,32.6902733 9.42688888,32.7852759 9.24007869,32.9752813 C9.05326849,33.355292 8.9598634,33.4502947 8.67964811,33.7353027 C7.93240734,34.4953242 7.09176148,35.1603429 6.06430542,35.5403536 C5.78409013,35.6353563 5.50387484,35.730359 5.31706465,35.730359 C5.03684936,35.730359 4.85003917,35.6353563 4.85003917,35.3503483 C4.85003917,34.5903269 4.85003917,33.7353027 5.03684936,32.9752813 C5.22365956,31.9302518 5.50387484,30.7902197 5.69068504,29.7451902 C5.78409013,29.0801715 5.22365956,29.4601822 4.94344427,29.5551849 C4.66322898,29.6501875 4.28960859,30.2202036 4.00939331,29.8401929 C3.72917802,29.5551849 4.1027984,29.1751741 4.1962035,28.8901661 C4.85003917,27.0851152 5.22365956,25.1850616 5.50387484,23.285008 C5.50387484,23.1900054 5.59727994,23 5.31706465,23 C5.22365956,23 5.22365956,23.0950027 5.13025446,23.0950027 C4.94344427,23.285008 4.85003917,23.5700161 4.66322898,23.7600214 C3.07534235,26.3250938 2.04788629,29.0801715 1.48745571,32.0252545 C1.11383533,34.1153135 0.83362004,36.3003751 1.11383533,38.4854367 C1.30064552,40.765501 2.04788629,42.9505626 3.35555763,44.8506162 C4.47641879,46.3706591 5.78409013,47.6056939 7.27857167,48.5557207 C8.02581244,49.0307341 8.77305321,49.5057475 9.33348378,50.0757635 C10.3609398,51.0257903 11.481801,51.9758171 12.6026621,52.7358386 C12.8828774,52.9258439 12.9762825,53.1158493 13.0696876,53.4008573 C13.1630927,53.780868 13.1630927,54.0658761 13.2564978,54.4458868 C13.5367131,55.5859189 13.7235233,56.7259511 13.6301182,57.9609859 C13.5367131,58.9110127 13.8169284,59.7660368 14.1905488,60.5260582 C14.4707641,61.0010716 14.6575743,61.0960743 15.1245997,60.8110663 C15.4982201,60.6210609 15.8718405,60.3360529 16.2454609,60.0510449 C16.6190813,59.8610395 16.9927017,59.6710341 17.366322,59.6710341 C17.9267526,59.6710341 18.300373,60.0510449 18.2069679,60.6210609 C18.2069679,60.906069 18.1135628,61.0960743 18.0201577,61.2860797 C18.0201577,61.3810824 17.9267526,61.5710877 18.1135628,61.6660904 C18.2069679,61.6660904 18.300373,61.6660904 18.3937781,61.5710877 C18.8608036,61.2860797 19.234424,60.8110663 19.4212342,60.1460475 C19.5146393,59.7660368 19.5146393,59.4810288 19.6080444,59.1010181 C19.6080444,59.0060154 19.6080444,58.81601 19.7014494,58.7210073 C19.8882596,58.6260047 19.9816647,58.81601 20.1684749,58.9110127 C20.26188,59.0060154 20.3552851,59.1960207 20.5420953,59.2910234 C21.3827412,60.2410502 22.3167921,61.0960743 23.3442482,61.6660904 C23.6244635,61.8560958 23.8112737,62.0461011 23.9980839,62.3311092 C24.3717043,62.9961279 24.7453246,63.7561493 25.3057552,64.3261654 C25.9595909,65.0861868 27.1738571,65.2761922 27.8276928,64.5161708 C28.2013132,64.0411574 28.7617438,63.7561493 29.3221743,63.6611467 C29.6957947,63.566144 29.8826049,63.3761386 30.0694151,62.9961279 C30.3496304,62.4261118 30.3496304,61.7610931 30.1628202,61.191077 C30.0694151,60.8110663 29.8826049,60.4310556 29.7891998,60.0510449 C29.6957947,59.6710341 29.6023896,59.5760315 29.97601,59.4810288 C30.5364406,59.1960207 30.8166559,58.81601 31.0034661,58.2459939 C31.2836814,57.4859725 31.7507068,56.9159564 32.4045425,56.5359457 C32.4979476,56.440943 32.5913527,56.440943 32.6847578,56.3459404 C32.9649731,56.2509377 33.0583782,56.0609323 32.9649731,55.7759243" id="Path"></path><path d="M48.8963624,42 C49.6650652,39.3162939 49.4728895,36.6325879 48.8002745,33.9488818 C48.7041867,33.5654952 48.6080988,33.2779553 48.4159231,32.9904153 C48.3198353,32.8945687 48.2237474,32.7028754 48.1276596,32.798722 C47.839396,32.9904153 47.6472203,32.8945687 47.5511325,32.7028754 C47.1667811,32.2236422 46.7824296,31.6485623 46.4941661,31.0734824 C46.2059025,30.5942492 45.4371997,28.6773163 45.245024,28.2939297 C44.1880577,26.3769968 42.9389156,24.6517572 41.3054221,23.2140575 C39.6719286,21.7763578 37.7501716,21.2971246 35.6362388,21.5846645 C34.0027454,21.8722045 32.5614276,22.4472843 31.4083734,23.6932907 C31.3122855,23.7891374 31.2161977,23.7891374 31.2161977,23.884984 L31.1201098,23.884984 C30.9279341,23.7891374 31.024022,23.6932907 31.024022,23.5015974 C31.024022,22.9265176 31.2161977,22.3514377 31.4083734,21.7763578 C32.5614276,18.9009585 34.1949211,16.4089457 36.7892931,14.4920128 C38.3266987,13.341853 40.05628,12.6709265 41.9780371,12.1916933 C42.650652,12 43.4193548,12 44.0919698,12 C45.7254633,12 47.3589568,12 48.9924502,12.6709265 C49.9533288,13.0543131 51.0102951,13.341853 51.9711736,13.7252396 C54.949897,14.7795527 57.3520933,16.600639 59.4660261,18.8051118 C61.8682224,21.2971246 64.078243,23.9808307 65.9039121,26.9520767 C65.9039121,27.0479233 66,27.0479233 66,27.14377 L65.9039121,27.2396166 C65.5195607,27.0479233 65.327385,26.7603834 65.0391215,26.4728435 C63.6938916,25.1309904 62.4447495,23.7891374 61.0995196,22.543131 C58.889499,20.3386581 56.4873027,18.4217252 53.8929307,16.7923323 C51.106383,15.0670927 48.0315717,14.3961661 44.7645848,14.8753994 C41.8819492,15.3546326 39.4797529,16.6964856 37.5579959,18.8051118 C37.2697323,19.0926518 36.9814688,19.4760383 36.8853809,19.6677316 C36.8853809,19.7635783 36.9814688,19.8594249 37.0775566,19.8594249 C37.3658202,19.8594249 37.6540837,19.8594249 37.9423473,19.8594249 C40.5367193,19.9552716 42.8428277,20.6261981 44.9567605,22.0638978 C47.4550446,23.6932907 48.9924502,26.0894569 49.6650652,28.9648562 C49.6650652,29.1565495 49.7611531,29.3482428 49.7611531,29.4440895 C49.7611531,30.115016 49.9533288,30.7859425 50.1455045,31.3610224 C50.5298559,32.3194888 50.6259437,33.2779553 50.6259437,34.3322684 C50.6259437,36.1533546 50.3376802,37.9744409 49.9533288,39.6996805 C49.5689774,40.5623003 49.4728895,41.3290735 48.8963624,42 L48.8963624,42 Z" id="Path"></path><path d="M6.26086957,8.87055218 C6.26086957,8.77754508 6.26086957,8.77754508 6.26086957,8.77754508 C6.26086957,8.49852378 5.91304348,8.12649538 5.65217391,8.12649538 C5.30434783,8.03348828 4.95652174,8.31250958 4.86956522,8.68453798 C4.7826087,8.96355928 4.86956522,9.42859478 5.13043478,9.61460898 L5.2173913,9.61460898 C5.65217391,9.80062318 6.26086957,9.33558768 6.26086957,8.87055218 M3.2173913,8.59153088 C2.7826087,8.68453798 2.34782609,8.68453798 1.91304348,8.96355928 C1.04347826,9.52160188 0,8.59153088 0,7.66145988 C0,7.28943147 0,6.82439597 0.0869565217,6.45236757 C0.260869565,5.70831077 0.52173913,5.05726107 1.2173913,4.77823977 C2.17391304,4.31320427 2.34782609,4.03418297 2.52173913,3.01110487 C2.52173913,2.82509067 2.60869565,2.63907647 2.7826087,2.45306227 C2.95652174,2.26704807 3.13043478,2.26704807 3.30434783,2.45306227 C3.39130435,2.54606937 3.47826087,2.73208357 3.56521739,2.91809777 C3.56521739,3.01110487 3.56521739,3.19711907 3.65217391,3.38313327 C3.73913043,3.56914747 3.82608696,3.66215457 4,3.66215457 C4.17391304,3.66215457 4.26086957,3.47614037 4.34782609,3.38313327 C4.52173913,2.91809777 4.69565217,2.54606937 4.7826087,2.08103387 C4.7826087,1.89501967 4.7826087,1.70900547 4.86956522,1.52299127 C4.95652174,1.24396996 5.2173913,1.15096286 5.47826087,1.15096286 C5.73913043,1.05795576 5.91304348,1.24396996 6,1.52299127 C6.08695652,1.89501967 6.08695652,2.26704807 6.26086957,2.63907647 C6.34782609,2.82509067 6.60869565,2.82509067 6.7826087,2.73208357 C7.04347826,2.45306227 7.2173913,2.17404097 7.39130435,1.80201257 C7.56521739,1.42998416 7.73913043,1.05795576 8,0.778934464 C8.26086957,0.406906063 8.60869565,0.127884763 9.13043478,0.0348776626 C9.47826087,-0.0581294376 9.73913043,0.0348776626 9.91304348,0.313898963 C10.0869565,0.592920263 10,0.871941564 9.82608696,1.05795576 C9.56521739,1.24396996 9.39130435,1.52299127 9.2173913,1.80201257 C9.13043478,1.98802677 9.04347826,2.26704807 8.95652174,2.45306227 C8.95652174,2.54606937 8.95652174,2.73208357 9.13043478,2.73208357 C9.73913043,2.63907647 10,3.01110487 10.173913,3.47614037 C10.3478261,3.94117587 10.6956522,4.22019717 11.0434783,4.59222557 C11.5652174,4.96425397 11.826087,5.52229657 11.826087,6.17334627 C11.826087,6.54537467 11.9130435,6.82439597 12,7.19642437 C12,7.47544568 11.826087,7.66145988 11.6521739,7.75446698 C11.0434783,7.84747408 10.4347826,7.84747408 9.73913043,7.66145988 C9.2173913,7.47544568 8.69565217,7.28943147 8.17391304,7.10341727 C7.56521739,6.91740307 6.95652174,6.91740307 6.26086957,6.91740307 C6.17391304,6.91740307 6.08695652,7.01041017 6,7.01041017 C5.91304348,7.19642437 6.08695652,7.28943147 6.17391304,7.28943147 C6.69565217,7.66145988 7.13043478,8.21950248 7.56521739,8.68453798 C7.91304348,9.14957348 8.08695652,9.61460898 8.17391304,10.1726516 C8.26086957,10.8237013 8.08695652,11.474751 7.65217391,11.9397865 C7.39130435,12.2188078 6.17391304,13.2418859 6,14.7299995 C5.82608696,16.4971344 5.13043478,17.985248 4.34782609,19.4733616 C4.08695652,19.9383971 3.73913043,20.4034326 3.39130435,20.8684681 C3.30434783,20.9614752 3.13043478,21.0544823 2.95652174,20.9614752 C2.43478261,20.5894468 2.08695652,20.2174184 2.08695652,19.4733616 C2.08695652,18.8223119 1.91304348,18.1712622 1.73913043,17.6132196 C1.47826087,16.8691628 1.30434783,16.125106 1.30434783,15.2880421 C1.30434783,14.5439853 1.39130435,13.9859427 1.82608696,13.334893 C2.17391304,12.7768504 2.60869565,12.1258007 2.7826087,11.474751 C2.86956522,11.2887368 2.95652174,11.1027226 3.13043478,11.1027226 C3.39130435,11.1027226 3.73913043,11.1027226 3.82608696,10.7306942 C4,10.3586658 4.08695652,9.98663738 4,9.52160188 C3.82608696,9.33558768 3.82608696,8.96355928 3.73913043,8.77754508 C3.56521739,8.68453798 3.47826087,8.59153088 3.2173913,8.59153088" id="Shape"></path><path d="M46.8393847,44.355598 C46.4516252,43.5852326 46.4516252,42.7185715 46.5485651,41.8519104 C46.5485651,41.2741363 46.4516252,40.6963622 46.2577454,40.1185881 C46.1608055,39.9259967 46.1608055,39.8297011 46.0638656,39.6371097 C45.9669257,39.4445183 45.9669257,39.251927 45.8699858,39.0593356 C45.7730459,38.7704486 45.8699858,38.6741529 46.1608055,38.7704486 C46.2577454,38.7704486 46.4516252,38.9630399 46.5485651,38.7704486 C46.5485651,38.6741529 46.5485651,38.5778572 46.4516252,38.4815615 C45.5791661,37.0371263 44.7067071,35.4963954 43.7373082,34.0519602 C42.9617891,32.8964121 42.1862699,31.6445682 41.4107508,30.4890201 C40.5382918,29.1408805 39.3750131,28.1779237 38.1147945,27.3112626 C37.1453956,26.6371928 36.1759966,26.2520101 35.0127179,26.0594187 C33.6555595,25.8668274 32.3953409,26.1557144 31.2320622,26.7334885 C30.9412425,26.8297842 30.9412425,27.1186712 31.1351223,27.3112626 C31.6198217,27.792741 32.2014611,28.2742194 32.7831004,28.6594021 C34.7218983,29.911246 36.3698764,31.5482725 37.8239748,33.2815948 C38.4056142,33.8593689 40.4413519,35.9778738 41.0229912,36.9408306 C41.3138109,37.422309 41.6046306,38.0000831 41.8954503,38.4815615 C42.08933,38.8667443 42.3801497,39.251927 42.7679093,39.540814 C43.6403683,40.1185881 44.0281279,40.8889535 43.931188,41.948206 C43.931188,42.2370931 43.931188,42.5259801 43.931188,42.8148672 C43.931188,43.2963456 44.0281279,43.6815283 44.3189475,44.066711 C44.4158874,44.2593024 44.6097672,44.5481894 44.6097672,44.7407808 C44.803647,46.3778073 44.9975268,48.1111296 44.7067071,49.7481562 C44.6097672,50.1333389 44.5128273,50.5185216 44.6097672,51 C44.7067071,51 44.7067071,51 44.803647,50.9037043 C44.9005869,50.8074086 44.9975268,50.8074086 44.9975268,50.711113 C45.9669257,49.2666778 46.6455049,47.6296512 46.9363246,45.8000333 C47.0332645,45.2222592 47.0332645,44.7407808 46.8393847,44.355598" id="Path"></path><path d="M38.5031351,21.684331 C39.4339533,20.7082106 40.3647716,19.9273143 41.5748354,19.3416421 C41.760999,19.2440301 41.8540808,19.2440301 42.0402445,19.1464181 C42.5056536,18.951194 42.8779809,18.951194 43.3433901,19.1464181 C43.8087992,19.4392542 44.3672902,19.7320903 44.8326993,20.1225384 C46.601254,21.5867189 48.1836451,23.2461235 49.3937088,25.1983642 C50.4176089,26.7601568 51.0691817,28.5171734 51.441509,30.3718021 C51.7207545,31.7383706 51.9069182,33.1049391 52,34.4715076 C52,34.5691196 52,34.7643437 52,34.8619557 C52,34.9595678 51.8138363,35.0571798 51.7207545,34.9595678 C51.5345909,34.8619557 51.441509,34.6667317 51.2553454,34.4715076 C50.7899362,33.6906113 50.3245271,32.909715 50.1383635,32.0312067 C49.6729543,30.078966 48.9282997,28.2243373 47.718236,26.6625448 C46.6943359,25.3935883 45.3911903,24.51508 43.9949629,23.7341837 C43.4364719,23.4413476 42.7848991,23.2461235 42.2264082,22.9532874 C41.2025081,22.4652273 40.178608,22.3676152 39.061626,22.3676152 C38.8754624,22.3676152 38.1308078,22.4652273 38.0377259,22.2700032 C37.8515623,22.4652273 38.4100532,21.879555 38.5031351,21.684331" id="Path"></path><path d="M42,16.4769548 C42.9381011,16.095391 43.8762022,16 44.7100699,16 C45.7524045,16 46.794739,16 47.7328402,16 C48.8794082,16 49.9217428,16.3815638 51.0683108,16.7631276 C51.4852446,16.9539096 51.6937115,17.1446915 51.5894781,17.5262553 C51.4852446,17.9078191 51.6937115,18.0032101 52.0064119,18.193992 C52.7360461,18.5755558 53.2572134,19.1479016 53.6741472,19.7202473 C53.7783807,20.0064202 53.8826141,20.1972021 53.9868476,20.4833749 C54.091081,21.3418935 53.5699138,22.0096302 52.6318126,22.1050212 C52.1106454,22.2004121 51.5894781,22.1050212 51.0683108,22.1050212 C50.7556104,22.1050212 50.3386766,22.1050212 50.2344431,22.486585 L50.2344431,22.581976 C49.7132758,23.1543217 49.5048089,23.1543217 48.9836416,22.486585 C48.149774,21.4372845 47.3159063,20.387984 46.3778052,19.5294654 C45.3354706,18.5755558 44.0846691,17.6216463 42.8338677,16.9539096 C42.5211673,16.8585186 42.2084669,16.7631276 42,16.4769548" id="Path"></path><path d="M46.9619629,32.9068196 C46.8650048,32.5262414 46.8650048,32.0505186 46.7680467,31.6699403 C46.6710887,31.3845066 46.1862983,29.9573382 46.0893402,29.6719045 C45.1197594,27.7690133 43.6653883,26.0564112 42.017101,24.6292427 C40.9505622,23.6777971 39.5931491,23.1069297 38.138778,23.0117852 C36.2965746,22.9166406 34.5513292,23.3923634 33.0969581,24.6292427 C33.0969581,24.6292427 33.0969581,24.7243873 33,24.8195319 C33.0969581,24.8195319 33.1939162,24.8195319 33.2908742,24.8195319 C35.0361196,24.5340982 36.6844069,24.7243873 38.3326942,25.5806884 C39.5931491,26.1515557 40.5627299,27.0078568 41.5323106,27.9593024 C42.5988495,29.0058926 43.3745141,30.3379165 44.1501787,31.5747958 C44.7319271,32.6213859 45.3136756,33.5728316 45.9923821,34.6194218 C46.0893402,34.8097109 46.1862983,35 46.4771725,35 C46.6710887,34.9048554 46.7680467,34.7145663 46.7680467,34.5242772 C46.9619629,33.9534098 47.058921,33.3825424 46.9619629,32.9068196" id="Path"></path><path d="M17,67.7528524 C16.5435334,68.4062597 15.9957735,68.7329634 15.3567202,68.8418646 C14.9002536,68.9507658 14.3524937,68.9507658 13.896027,68.8418646 C13.4395604,68.7329634 13.0743872,68.8418646 12.8005072,69.1685682 C11.887574,69.8219756 10.9746407,70.4753829 10.0617075,71.1287902 C9.78782756,71.3465927 9.60524091,71.4554939 9.33136095,71.5643951 C9.24006762,71.6732963 9.05748098,71.4554939 9.05748098,71.3465927 C9.05748098,70.9109878 9.24006762,70.6931853 9.42265427,70.3664817 C9.42265427,70.2575805 9.42265427,70.1486792 9.42265427,70.1486792 L9.24006762,70.039778 C9.05748098,70.039778 8.87489434,70.1486792 8.69230769,70.2575805 C7.59678783,70.8020866 6.50126796,71.2376915 5.49704142,71.8910988 C5.4057481,72 5.22316145,72 5.13186813,72 L5.04057481,72 C5.04057481,71.8910988 4.94928149,71.7821976 5.04057481,71.7821976 C5.22316145,71.4554939 5.49704142,71.1287902 5.67962806,70.9109878 C6.77514793,69.8219756 7.96196112,68.8418646 9.33136095,68.1884573 C10.8833474,67.5350499 12.1614539,66.2282353 13.1656805,64.7036182 C13.7134404,63.9413096 13.896027,63.0700999 13.9873204,62.0899889 C13.9873204,61.654384 14.169907,61.4365815 14.443787,61.2187791 C14.8089603,61.0009767 15.0828402,60.674273 15.4480135,60.4564705 C15.7218935,60.2386681 15.9957735,60.1297669 16.2696534,60.0208657 C16.72612,59.9119644 17,60.2386681 16.9087067,60.7831742 C16.72612,61.5454828 16.72612,62.3077913 16.2696534,62.8522974 C16.1783601,62.9611986 16.1783601,63.0700999 16.0870668,63.1790011 C15.6306002,64.594717 15.0828402,66.0104328 14.6263736,67.3172475 C14.5350803,67.5350499 14.7176669,67.7528524 14.9002536,67.8617536 C15.2654269,67.9706548 15.6306002,67.9706548 15.9957735,67.8617536 C16.3609467,67.8617536 16.6348267,67.7528524 17,67.7528524" id="Path"></path><path d="M21,73.8073722 C21.0895522,73.6147444 21.1791045,73.5184304 21.1791045,73.4221165 C22.1641791,72.6516052 23.238806,72.0737218 24.4029851,71.78478 C25.2089552,71.5921522 25.9253731,71.3995244 26.7313433,71.2068966 C26.9104478,71.2068966 27.0895522,71.1105826 27.1791045,71.1105826 C27.5373134,70.9179548 27.7164179,70.725327 27.7164179,70.3400713 C27.7164179,69.56956 27.7164179,68.7990488 27.5373134,68.0285375 C27.4477612,67.450654 27.2686567,66.8727705 27.1791045,66.294887 C27.0895522,66.0059453 27.1791045,65.8133175 27.358209,65.6206897 C27.5373134,65.5243757 27.7164179,65.3317479 27.8955224,65.235434 C28.7014925,64.7538644 28.880597,65.0428062 28.9701493,65.8133175 C29.1492537,67.3543401 29.3283582,68.8953627 29.5074627,70.4363853 C29.6865672,71.78478 29.8656716,71.8810939 31.119403,72.2663496 C31.5671642,72.3626635 31.9253731,72.4589774 32.3731343,72.3626635 C32.5522388,72.3626635 32.7313433,72.3626635 32.8208955,72.3626635 L33,72.4589774 C33,72.5552913 33,72.5552913 32.9104478,72.6516052 C32.4626866,72.940547 31.9253731,72.940547 31.3880597,73.0368609 C30.5820896,73.1331748 29.7761194,73.1331748 28.9701493,73.0368609 C28.6119403,72.940547 28.3432836,72.940547 27.9850746,73.0368609 C27.4477612,73.1331748 26.8208955,73.3258026 26.1940299,73.6147444 C25.9253731,73.7110583 25.6567164,73.9036861 25.3880597,74 C25.2985075,74 25.2089552,74 25.119403,73.9036861 C25.119403,73.8073722 25.119403,73.8073722 25.119403,73.7110583 C25.119403,73.6147444 25.119403,73.6147444 25.2089552,73.5184304 C25.2985075,73.3258026 25.5671642,73.1331748 25.3880597,72.8442331 C25.2089552,72.6516052 24.9402985,72.7479191 24.6716418,72.7479191 C23.8656716,72.940547 23.0597015,73.2294887 22.2537313,73.5184304 C21.8955224,73.6147444 21.5373134,73.8073722 21,73.8073722" id="Path"></path><path d="M4.94464489,10.2175495 C4.81100584,10.6522442 4.54372774,11 3.87553248,11 C3.47461533,11 3.07369818,11 2.80642007,10.9130611 C2.00458577,10.8261221 1.06911241,10.6522442 0.267278102,10.7391832 L0,10.6522442 L0,10.4783663 C0.267278102,10.3044884 0.400917153,10.1306105 0.935473358,9.78285473 C1.60366861,9.43509893 4.81100584,8.6526484 4.81100584,9.17428209 C4.94464489,9.52203788 5.07828394,9.78285473 4.94464489,10.2175495" id="Path"></path><path d="M5.8,9 C5.4,9 5,8.6 5,8 C5,7.4 5.6,7 6.2,7 C6.6,7 7,7.4 7,8 C7,8.6 6.4,9 5.8,9" id="Path"></path></g></g></g></g></svg>