<svg xmlns="http://www.w3.org/2000/svg" width="139" height="139" viewBox="0 0 139 139"><g fill="#F4714B" fill-rule="evenodd"><path d="m87.28 90.62-2.66 2.66c-8.72-8.73-26.53-2.83-30.48 1.12l-2.66-2.66c3.84-3.83 15.22-8.13 25.24-6.36L40.4 49.05l2.65-2.65 36.33 36.32c-1.72-9.96 2.53-21.4 6.36-25.24l2.66 2.66c-4.01 4-9.85 21.76-1.12 30.48Z"></path><g fill-rule="nonzero"><path d="M63.4 134.17c0-.1.02-.24.05-.4l6.01.2a2.37 2.37 0 0 0-.8-1.61 2.87 2.87 0 0 0-1.81-.65 2.75 2.75 0 0 0-2.17.82l-.71-.9c.35-.37.78-.66 1.29-.85a4.3 4.3 0 0 1 1.67-.25c.79.03 1.47.21 2.07.55.6.35 1.05.81 1.37 1.4.3.6.45 1.25.42 1.98-.02.72-.2 1.36-.54 1.93-.35.57-.8 1-1.38 1.3-.58.3-1.22.45-1.93.42-.7-.02-1.33-.2-1.87-.55-.55-.34-.97-.8-1.26-1.39a4.07 4.07 0 0 1-.4-2Zm3.58 2.8c.64.03 1.19-.15 1.64-.52.44-.38.71-.89.81-1.52l-4.76-.16a2.34 2.34 0 0 0 2.3 2.2ZM52.26 136.07c-1-.26-1.69-.7-2.08-1.33-.41-.62-.49-1.42-.24-2.39l1.13-4.33 1.23.32-.25.95c.3-.28.69-.46 1.14-.53a3.7 3.7 0 0 1 1.49.1c.8.22 1.4.58 1.79 1.1.37.5.48 1.08.32 1.71a1.93 1.93 0 0 1-1.09 1.34c-.56.27-1.34.27-2.34.01l-2.06-.53-.07.26c-.15.56-.1 1.03.15 1.41.25.38.7.66 1.32.82a3.82 3.82 0 0 0 2.48-.18l.29 1.11c-.45.2-.95.32-1.5.34a5.6 5.6 0 0 1-1.7-.18Zm1.94-6.26c-.5-.12-.95-.13-1.37 0a2 2 0 0 0-1.03.74l-.26 1 2 .52c1.1.29 1.75.06 1.95-.68.09-.36.02-.68-.2-.96a1.99 1.99 0 0 0-1.09-.62ZM39.91 123.85c.25-.06.53-.08.83-.03.3.05.58.14.86.27.67.33 1.1.76 1.3 1.3.2.54.13 1.14-.2 1.82l-1.76 3.67 1.13.54-.48 1-1.13-.55-.7 1.46-1.22-.58.7-1.46-1.91-.93.48-1 1.92.93 1.74-3.62c.18-.36.23-.68.14-.96-.09-.28-.3-.5-.64-.66a1.62 1.62 0 0 0-1.1-.15l.04-1.05ZM25.49 112.45c.54.53.9 1.12 1.1 1.77a3.62 3.62 0 0 1-.98 3.68c-.51.52-1.09.86-1.73 1.03-.64.18-1.29.17-1.93-.02a4.17 4.17 0 0 1-1.79-1.07c-.47-.48-.8-1-.99-1.55a2.88 2.88 0 0 1-.05-1.7l1.2.25A2.28 2.28 0 0 0 21 117c.35.34.73.57 1.16.7.43.11.86.1 1.3-.02.43-.13.82-.38 1.18-.74.37-.37.62-.78.75-1.21.11-.44.11-.87 0-1.3a2.7 2.7 0 0 0-1.72-1.76 2.28 2.28 0 0 0-1.18-.05l-.28-1.17a2.97 2.97 0 0 1 1.72.02c.56.17 1.08.5 1.56.97ZM10.86 111.39l-.78-1.09 8.46-6.03.78 1.1zM8.5 93.59c.1-.05.23-.1.39-.15l2.55 5.45c.56-.35.91-.83 1.07-1.44.15-.62.06-1.25-.25-1.91a2.75 2.75 0 0 0-1.72-1.56l.48-1.04c.5.14.94.39 1.34.76.4.36.73.82.99 1.38.33.7.48 1.4.45 2.09-.04.69-.25 1.3-.63 1.85s-.9.97-1.57 1.28c-.65.3-1.3.44-1.96.4a3.48 3.48 0 0 1-1.78-.64 3.78 3.78 0 0 1-1.26-1.53 3.64 3.64 0 0 1-.36-1.92c.05-.64.27-1.22.67-1.75.39-.53.92-.96 1.6-1.27Zm-.87 4.46c.27.58.68.99 1.22 1.22.54.22 1.1.23 1.72.03L8.55 95a2.35 2.35 0 0 0-.92 3.05ZM1.75 84.53c-.22-1-.15-1.82.23-2.46.37-.65 1.04-1.08 2.02-1.3l4.37-.97.28 1.25-.96.2c.39.15.72.4.99.78.26.36.45.82.58 1.38.18.8.13 1.5-.16 2.08-.28.57-.74.93-1.38 1.07-.64.14-1.2.02-1.68-.36-.5-.38-.86-1.07-1.08-2.08l-.47-2.08-.25.06c-.57.12-.97.38-1.2.78-.22.4-.27.9-.12 1.55a3.82 3.82 0 0 0 1.29 2.12l-.87.77c-.38-.31-.7-.7-.98-1.2a5.6 5.6 0 0 1-.61-1.6ZM8.2 83.4c-.11-.5-.32-.9-.62-1.22a2 2 0 0 0-1.13-.58l-1.01.22.45 2.02c.24 1.12.74 1.59 1.49 1.42.36-.08.62-.28.76-.61.15-.33.17-.75.06-1.25ZM0 68.17c0-.94.3-1.68.85-2.23.54-.55 1.34-.83 2.4-.82l4.27.04-.01 1.35-4.12-.04c-.72 0-1.26.16-1.63.5-.37.34-.55.84-.56 1.48 0 .73.2 1.3.63 1.73.42.42 1.02.64 1.81.65l3.83.03-.02 1.34-7.42-.06.02-1.3 1.12.02a2.62 2.62 0 0 1-.88-1.1c-.2-.47-.3-1-.29-1.59ZM4.68 44.03c.38-.96.9-1.6 1.57-1.91.67-.33 1.47-.3 2.4.06l4.16 1.66-.47 1.18-.9-.36c.23.33.36.73.38 1.2.01.44-.09.93-.3 1.46-.3.77-.74 1.31-1.3 1.63-.55.32-1.13.35-1.74.11-.6-.24-1-.66-1.2-1.24-.2-.6-.1-1.37.28-2.33l.79-1.98-.25-.1c-.54-.21-1.01-.22-1.42-.02-.41.2-.74.6-.98 1.2a3.82 3.82 0 0 0-.12 2.49l-1.15.15c-.14-.47-.2-.98-.14-1.54a5.6 5.6 0 0 1 .39-1.66Zm5.96 2.7c.2-.48.25-.94.18-1.37a2 2 0 0 0-.61-1.11l-.96-.38-.77 1.92c-.42 1.06-.27 1.73.44 2.01.35.14.67.11.98-.07.3-.2.55-.53.74-1ZM12.42 29.51a3.03 3.03 0 0 1 1.95-1.37c.76-.15 1.58.07 2.45.67l3.5 2.43-.76 1.1-3.38-2.33c-.6-.41-1.14-.58-1.63-.5-.5.07-.93.38-1.3.9a2.3 2.3 0 0 0-.45 1.79c.11.58.49 1.1 1.14 1.55l3.14 2.18-.76 1.1-6.1-4.22.73-1.06.92.64c-.16-.44-.2-.9-.1-1.4.1-.5.31-1 .65-1.48ZM23.53 13.2l6.93 7.74-.96.86-.78-.88c.05.5-.03.99-.22 1.45-.2.47-.5.89-.92 1.25a3.9 3.9 0 0 1-1.75.94c-.64.14-1.27.1-1.9-.1a4.07 4.07 0 0 1-1.67-1.16 3.99 3.99 0 0 1-.96-1.8c-.14-.63-.1-1.26.11-1.88a3.9 3.9 0 0 1 2.42-2.4 2.8 2.8 0 0 1 1.43-.08l-2.73-3.05 1-.9Zm3.35 9.47a2.37 2.37 0 0 0 .79-2.38c-.1-.44-.33-.85-.68-1.23a2.78 2.78 0 0 0-1.14-.8 2.25 2.25 0 0 0-1.29-.09c-.42.1-.81.3-1.16.61a2.37 2.37 0 0 0-.8 2.38c.1.44.33.85.67 1.23s.73.65 1.15.8c.43.15.86.18 1.29.1.43-.1.82-.3 1.17-.62ZM48.39 3.1l2.21 6.02c.45 1.21.48 2.22.09 3.02-.39.81-1.18 1.44-2.38 1.88-.66.24-1.32.38-1.98.42a3.9 3.9 0 0 1-1.73-.23l.25-1.2c.43.17.9.24 1.44.22a4.81 4.81 0 0 0 1.57-.3c.82-.3 1.35-.71 1.59-1.24.25-.53.23-1.19-.06-1.98l-.2-.55c-.17.47-.44.88-.8 1.22-.37.34-.8.6-1.31.78-.67.25-1.33.33-1.97.25A3.46 3.46 0 0 1 42.3 9.1c-.24-.66-.3-1.3-.19-1.92.12-.63.4-1.18.82-1.66a4.15 4.15 0 0 1 3.23-1.33c.52.02 1 .17 1.43.44l-.4-1.08 1.2-.44ZM46.8 10c.46-.16.83-.4 1.12-.73.3-.33.48-.7.56-1.12a2.4 2.4 0 0 0-.12-1.3 2.25 2.25 0 0 0-1.27-1.38 2.57 2.57 0 0 0-1.96 0c-.7.27-1.2.69-1.5 1.27-.3.58-.32 1.2-.07 1.88.16.44.4.8.74 1.07.34.27.72.43 1.15.49.44.06.89 0 1.35-.17ZM58.6 2.07c.16-.46.46-.83.87-1.12.42-.3.96-.49 1.6-.58l.2 1.28c-.08 0-.18.02-.31.04-.72.1-1.26.4-1.6.9-.35.49-.46 1.13-.34 1.92l.55 3.66-1.33.2-1.1-7.34 1.27-.2.19 1.24ZM75.65 4c0 .1-.02.23-.05.4l-6.01-.28c.05.65.3 1.2.77 1.62.48.41 1.08.64 1.8.67.9.04 1.62-.22 2.19-.8l.7.9c-.35.38-.79.66-1.3.84a4.3 4.3 0 0 1-1.68.23 4.43 4.43 0 0 1-2.06-.57 3.54 3.54 0 0 1-1.35-1.42c-.3-.6-.43-1.26-.4-1.98.04-.72.23-1.36.57-1.93.35-.56.82-.99 1.4-1.28.58-.3 1.22-.43 1.93-.4.71.04 1.33.23 1.87.58s.95.81 1.23 1.4c.3.6.42 1.27.39 2.02ZM72.1 1.14c-.64-.03-1.2.14-1.65.5-.45.38-.72.88-.83 1.51l4.76.23a2.34 2.34 0 0 0-2.28-2.24ZM89.67 6.99l-.13.38-5.81-1.59c-.1.66.04 1.24.4 1.76.38.5.92.85 1.62 1.05.85.23 1.62.13 2.3-.3l.49 1.03c-.43.29-.91.47-1.45.53a4.3 4.3 0 0 1-1.7-.14 4.43 4.43 0 0 1-1.88-1.01 3.54 3.54 0 0 1-1-1.68A3.92 3.92 0 0 1 82.55 5c.19-.7.51-1.28.97-1.75a3.47 3.47 0 0 1 1.64-.95c.64-.17 1.3-.15 1.98.03.68.19 1.25.51 1.7.97.45.46.75 1 .9 1.64.15.65.13 1.33-.07 2.05Zm-2.83-3.56a2.35 2.35 0 0 0-1.72.14c-.52.26-.9.69-1.14 1.28l4.6 1.26a2.34 2.34 0 0 0-1.74-2.68ZM102.1 8.32a3.03 3.03 0 0 1 1.57 1.8c.24.74.1 1.57-.4 2.5l-2.02 3.76-1.18-.64 1.95-3.62c.34-.63.45-1.2.32-1.68s-.48-.88-1.05-1.18A2.3 2.3 0 0 0 99.47 9c-.57.17-1.04.6-1.42 1.3l-1.81 3.37-1.19-.64 3.52-6.53 1.14.6-.53 1c.42-.21.88-.3 1.38-.26.5.04 1.02.2 1.54.47ZM107.6 21.05a.94.94 0 0 1-.35-.63.95.95 0 0 1 .23-.72.88.88 0 0 1 .64-.35c.26-.02.5.04.7.21.2.16.31.37.34.62a.93.93 0 0 1-.23.7.95.95 0 0 1-.66.37.88.88 0 0 1-.66-.2ZM126.06 36.95l-.36.2-3.23-5.08c-.5.42-.8.94-.88 1.57-.06.62.1 1.24.49 1.86.47.75 1.11 1.19 1.9 1.33l-.33 1.09a3.24 3.24 0 0 1-1.43-.59c-.44-.3-.83-.72-1.16-1.24a4.44 4.44 0 0 1-.71-2.01c-.05-.69.08-1.33.38-1.92.32-.59.78-1.08 1.4-1.47.6-.38 1.23-.6 1.9-.64.66-.04 1.27.1 1.84.4.58.3 1.06.76 1.44 1.36.38.6.58 1.21.6 1.85.04.65-.1 1.25-.43 1.82-.32.58-.8 1.07-1.42 1.47Zm.3-4.54c-.35-.54-.8-.9-1.37-1.05a2.38 2.38 0 0 0-1.7.19l2.55 4.01a2.34 2.34 0 0 0 .52-3.15ZM133.92 45.07c.34.97.37 1.8.08 2.47-.28.7-.9 1.2-1.84 1.55l-4.2 1.52-.44-1.2.92-.33c-.4-.1-.76-.3-1.08-.64a3.7 3.7 0 0 1-.75-1.3 3.12 3.12 0 0 1-.11-2.08c.2-.6.62-1.01 1.23-1.24a1.93 1.93 0 0 1 1.72.14c.54.31.99.96 1.34 1.93l.72 2 .25-.09c.54-.2.9-.5 1.08-.92.18-.42.15-.94-.07-1.56a3.82 3.82 0 0 0-1.55-1.94l.76-.87c.42.26.8.61 1.12 1.06.34.44.61.94.82 1.5Zm-6.26 1.94c.18.48.43.86.77 1.13a2 2 0 0 0 1.2.43l.97-.35-.7-1.95c-.39-1.07-.94-1.47-1.66-1.21-.35.12-.58.36-.68.7-.1.35-.07.76.1 1.25ZM130.81 62.16c-.2-.17-.36-.39-.5-.66a3.2 3.2 0 0 1-.25-.86c-.11-.74 0-1.34.33-1.81.34-.47.88-.76 1.61-.87l4.03-.6-.19-1.25 1.1-.17.19 1.25 1.6-.25.2 1.33-1.6.24.32 2.1-1.1.17-.32-2.1-3.97.6c-.4.06-.69.2-.87.43-.18.24-.24.54-.19.9.06.41.23.74.5 1l-.89.55ZM129.57 80.44c.13-.73.42-1.35.85-1.86a3.62 3.62 0 0 1 3.6-1.23c.7.13 1.31.41 1.81.84.5.44.86.97 1.07 1.61.2.64.24 1.32.1 2.05a3.95 3.95 0 0 1-.84 1.84 3.4 3.4 0 0 1-1.58 1.1c-.62.23-1.29.27-2 .14a3.83 3.83 0 0 1-1.84-.86c-.5-.43-.85-.96-1.06-1.6a3.94 3.94 0 0 1-.11-2.03Zm1.15.22a2.36 2.36 0 0 0 .82 2.36c.36.29.79.48 1.29.57.5.1.97.08 1.4-.06.43-.14.79-.37 1.07-.71.28-.33.46-.73.55-1.2a2.37 2.37 0 0 0-.82-2.38 2.78 2.78 0 0 0-1.27-.56 2.5 2.5 0 0 0-2.48.77 2.6 2.6 0 0 0-.56 1.2ZM132.13 93.98c.31.38.49.82.52 1.33.04.5-.06 1.07-.3 1.67l-1.22-.49c.04-.06.08-.15.13-.28.28-.67.29-1.29.04-1.84-.25-.54-.74-.96-1.49-1.26l-3.42-1.38.5-1.25 6.88 2.77-.48 1.2-1.16-.47ZM124.7 110.1l-5.34-3.55c-1.08-.72-1.7-1.52-1.85-2.4-.17-.88.1-1.85.81-2.92.4-.58.84-1.08 1.36-1.5a3.9 3.9 0 0 1 1.53-.83l.5 1.1a4.8 4.8 0 0 0-2.39 1.84c-.48.73-.66 1.38-.55 1.95.11.57.52 1.1 1.22 1.56l.49.33a3.04 3.04 0 0 1-.07-1.46c.1-.49.3-.96.6-1.4.39-.6.87-1.05 1.44-1.37a3.46 3.46 0 0 1 3.63.22c.59.39 1.01.87 1.28 1.44.28.58.39 1.19.32 1.83a4.16 4.16 0 0 1-1.82 2.98 2.9 2.9 0 0 1-1.41.48l.95.64-.7 1.06Zm-2.8-6.5c-.27.4-.43.82-.47 1.25-.04.44.02.85.2 1.23.2.4.48.72.87.98.6.4 1.21.52 1.84.36a2.57 2.57 0 0 0 1.58-1.15c.42-.63.57-1.27.46-1.91a2.25 2.25 0 0 0-1.05-1.56c-.39-.26-.8-.4-1.23-.43-.42-.01-.83.08-1.21.29-.39.2-.72.52-1 .93ZM116.88 118.96c-.74.7-1.49 1.06-2.23 1.07-.74 0-1.46-.35-2.14-1.08l-3.08-3.26.93-.87.67.71c-.07-.4-.02-.82.16-1.24.18-.41.47-.81.89-1.2.6-.57 1.22-.88 1.87-.94.63-.04 1.17.17 1.62.64.45.48.63 1.02.56 1.64-.07.61-.49 1.28-1.24 1.99l-1.55 1.46.18.2c.4.41.83.62 1.28.61.46 0 .92-.23 1.4-.68a3.83 3.83 0 0 0 1.16-2.2l1.1.36a4 4 0 0 1-.52 1.45c-.27.49-.62.93-1.06 1.34Zm-4.26-4.96c-.37.35-.62.73-.73 1.15a2 2 0 0 0 .08 1.27l.7.76 1.52-1.43c.82-.78.98-1.45.45-2a1.04 1.04 0 0 0-.92-.35c-.36.05-.72.24-1.1.6ZM103.73 128.84c-.81.48-1.6.62-2.35.42-.76-.19-1.4-.74-1.93-1.65l-2.15-3.68 1.16-.68 2.07 3.55c.36.62.79 1 1.27 1.14.48.14 1 .05 1.55-.27a2.3 2.3 0 0 0 1.17-1.43c.15-.57.02-1.2-.38-1.89l-1.92-3.3 1.16-.67 3.74 6.4-1.11.65-.57-.96c-.04.46-.2.9-.5 1.3-.3.42-.7.78-1.2 1.07ZM92.8 133.88l-1.26.45-2.47-7 1.26-.44 2.48 6.99Zm-.15 1.57a.92.92 0 0 1 .7.02c.22.1.37.27.45.5.08.22.07.45-.03.66a.9.9 0 0 1-.54.47.87.87 0 0 1-.69-.02.77.77 0 0 1-.45-.48.87.87 0 0 1 .04-.7c.1-.21.28-.36.52-.45ZM78.85 129.8a4.18 4.18 0 0 1 2.08.14 3.62 3.62 0 0 1 2.42 2.94c.12.72.06 1.39-.18 2a3.49 3.49 0 0 1-1.14 1.56c-.53.42-1.17.7-1.92.82-.66.12-1.27.08-1.83-.1a2.89 2.89 0 0 1-1.41-.95l.9-.82a2.29 2.29 0 0 0 2.16.71c.48-.08.9-.26 1.24-.53.35-.28.6-.63.75-1.07.14-.42.17-.88.09-1.39a2.9 2.9 0 0 0-.55-1.31c-.29-.35-.64-.6-1.05-.75a2.7 2.7 0 0 0-2.44.36c-.3.23-.55.54-.72.93l-1.12-.47c.2-.55.54-1.01 1.02-1.38a3.84 3.84 0 0 1 1.7-.7Z"></path><path d="M69.18 130.57c.26 0 .48.1.67.27.18.19.28.42.28.7 0 .27-.1.5-.29.67a.92.92 0 0 1-.67.28.9.9 0 0 1-.66-.27.93.93 0 0 1-.26-.69c0-.28.1-.51.28-.7.18-.17.4-.26.65-.26Z"></path></g></g></svg>